<?xml version="1.0" encoding="utf-8"?>
<!-- Generator: Adobe Illustrator 15.1.0, SVG Export Plug-In . SVG Version: 6.00 Build 0)  -->
<!DOCTYPE svg PUBLIC "-//W3C//DTD SVG 1.1//EN" "http://www.w3.org/Graphics/SVG/1.1/DTD/svg11.dtd">
<svg version="1.1" id="Layer_1" xmlns="http://www.w3.org/2000/svg" xmlns:xlink="http://www.w3.org/1999/xlink" x="0px" y="0px"
	 width="864px" height="864px" viewBox="0 0 864 864" enable-background="new 0 0 864 864" xml:space="preserve">
<g>
	<g>
		<linearGradient id="SVGID_1_" gradientUnits="userSpaceOnUse" x1="9.7905" y1="502.959" x2="854.9531" y2="502.959">
			<stop  offset="0" style="stop-color:#ED1C24"/>
			<stop  offset="1" style="stop-color:#ED1C24;stop-opacity:0.7"/>
		</linearGradient>
		<path fill="url(#SVGID_1_)" d="M64.483,317.481c0,0,253.323-202.626,528.877-105.066
			c174.012,60.543,301.428,226.651,250.121,411.048c-39.357,138.833-177.381,196.598-177.381,196.598s58.942-171.583-93.683-209.277
			c-135.62-29.563-198.996,91.023-355.683,104.327C60.048,728.414,9.791,669.286,9.791,669.286L64.483,317.481z"/>
	</g>
	<g>
		<linearGradient id="SVGID_2_" gradientUnits="userSpaceOnUse" x1="28.8672" y1="220.355" x2="857.1445" y2="220.355">
			<stop  offset="0" style="stop-color:#BFD6DF"/>
			<stop  offset="1" style="stop-color:#BFD6DF;stop-opacity:0.7"/>
		</linearGradient>
		<path fill="url(#SVGID_2_)" d="M28.867,324.909c0,0,212.888-186.949,475.385-151.099
			c285.346,46.993,346.241,249.164,346.241,249.164S932.98,124.722,516.979,30.591C364.62,3.765,236.115,27.249,236.115,27.249
			l-6.229,33.734l-4.415,23.9C56.324,189.591,28.867,324.909,28.867,324.909z"/>
	</g>
	<g>
		<linearGradient id="SVGID_3_" gradientUnits="userSpaceOnUse" x1="118.3218" y1="118.2163" x2="420.5469" y2="118.2163">
			<stop  offset="0" style="stop-color:#BFD6DF"/>
			<stop  offset="1" style="stop-color:#BFD6DF;stop-opacity:0.3"/>
		</linearGradient>
		<path fill="url(#SVGID_3_)" d="M225.471,84.883c68.377-34.363,195.076-14.854,195.076-14.854S256.961,83.825,118.322,171.919
			C118.322,171.919,173.199,113.389,225.471,84.883z"/>
	</g>
	<path fill="#FFFFFF" d="M132.175,325.61c-16.407,8.819-32.996,18.48-49.223,29.033l-25.649,154.93c0,0,19.573,3.754,51.904,6.103
		L132.175,325.61z"/>
	<path fill="#FFFFFF" d="M179.5,304.13c-8.417,3.92-17.046,8.131-25.773,12.562l-23.862,199.971
		c17.776,0.873,38.366,1.214,61.002,0.401l25.477-229.129C204.724,292.752,192.348,298.145,179.5,304.13z"/>
	<path fill="#FFFFFF" d="M299.239,258.094c0,0-24.236,6.909-60.084,20.722L210.98,516.05c18.919-1.218,38.965-3.265,59.759-6.477
		L299.239,258.094z"/>
	<linearGradient id="SVGID_4_" gradientUnits="userSpaceOnUse" x1="210.98" y1="387.0718" x2="299.2393" y2="387.0718">
		<stop  offset="0" style="stop-color:#BFD6DF"/>
		<stop  offset="1" style="stop-color:#BFD6DF;stop-opacity:0.7"/>
	</linearGradient>
	<path opacity="0.4" fill="url(#SVGID_4_)" d="M299.239,258.094c-4.602,40.603-28.5,251.479-28.5,251.479
		c-22.04,3.376-39.963,5.257-59.759,6.477C210.98,516.05,262.303,421.982,299.239,258.094z"/>
	<linearGradient id="SVGID_5_" gradientUnits="userSpaceOnUse" x1="129.8647" y1="402.7344" x2="216.3442" y2="402.7344">
		<stop  offset="0" style="stop-color:#BFD6DF"/>
		<stop  offset="1" style="stop-color:#BFD6DF;stop-opacity:0.7"/>
	</linearGradient>
	<path opacity="0.4" fill="url(#SVGID_5_)" d="M216.344,287.935c-4.602,40.603-25.477,229.129-25.477,229.129
		c-28.007,0.88-42.067,0.399-61.002-0.401C129.865,516.662,180.147,476.953,216.344,287.935z"/>
	<g opacity="0.4">
		<linearGradient id="SVGID_6_" gradientUnits="userSpaceOnUse" x1="57.3027" y1="420.6426" x2="132.1748" y2="420.6426">
			<stop  offset="0" style="stop-color:#BFD6DF"/>
			<stop  offset="1" style="stop-color:#BFD6DF;stop-opacity:0.7"/>
		</linearGradient>
		<path fill="url(#SVGID_6_)" d="M132.175,325.61c-4.601,40.602-22.968,190.066-22.968,190.066
			c-30.781-2.888-33.608-3.332-51.904-6.103C57.303,509.573,95.978,514.628,132.175,325.61z"/>
	</g>
	<g>
		<g>
			<path fill="#91BFC8" d="M247.197,729.794l-11.988,116.89c0,0-157.351,18.732-229.104-151.357
				C113.824,765.759,247.197,729.794,247.197,729.794z"/>
		</g>
		<g>
			<g>
				<path fill="#91BFC8" d="M280.599,756.148c42.247-20.1,84.493-40.199,126.738-60.3c6.539-3.109,0.813-12.79-5.689-9.694
					c-42.248,20.099-84.494,40.199-126.739,60.299C268.371,749.565,274.095,759.243,280.599,756.148L280.599,756.148z"/>
			</g>
		</g>
		<g>
			<g>
				<path fill="#91BFC8" d="M294.788,782.008c42.246-20.103,84.492-40.203,126.737-60.304c6.542-3.11,0.815-12.791-5.69-9.697
					c-42.247,20.104-84.492,40.203-126.738,60.304C282.557,775.423,288.284,785.102,294.788,782.008L294.788,782.008z"/>
			</g>
		</g>
		<g>
			<g>
				<path fill="#91BFC8" d="M282.05,819.483c42.245-20.101,84.49-40.202,126.735-60.304c6.541-3.109,0.814-12.79-5.69-9.696
					c-42.245,20.103-84.49,40.203-126.734,60.304C269.819,812.898,275.545,822.576,282.05,819.483L282.05,819.483z"/>
			</g>
		</g>
		<g>
			<linearGradient id="SVGID_7_" gradientUnits="userSpaceOnUse" x1="440.5137" y1="698.8535" x2="632.9131" y2="698.8535">
				<stop  offset="0" style="stop-color:#90BCC6"/>
				<stop  offset="1" style="stop-color:#BFD6DF;stop-opacity:0.7"/>
			</linearGradient>
			<path fill="url(#SVGID_7_)" d="M451.754,648.871l-11.24,122.439c0,0,54.734-51.258,104.901-12.294l87.498-87.283
				C632.913,671.733,579.463,587.313,451.754,648.871z"/>
		</g>
		<g>
			<g>
				<linearGradient id="SVGID_8_" gradientUnits="userSpaceOnUse" x1="634.0869" y1="753.5225" x2="657.5332" y2="753.5225">
					<stop  offset="0" style="stop-color:#BFD6DF"/>
					<stop  offset="1" style="stop-color:#BFD6DF;stop-opacity:0.7"/>
				</linearGradient>
				<path fill="url(#SVGID_8_)" d="M637.66,700.761c3.929,7.299,6.244,18.299,7.577,27.546c3.863,26.826-1.712,54.454-10.789,79.645
					c-2.465,6.838,8.406,9.733,10.842,2.967c9.654-26.791,14.759-55.55,11.006-83.984c-1.414-10.725-3.748-22.218-8.94-31.862
					C643.92,688.689,634.227,694.385,637.66,700.761L637.66,700.761z"/>
			</g>
		</g>
		<g>
			<g>
				<linearGradient id="SVGID_9_" gradientUnits="userSpaceOnUse" x1="608.5811" y1="757.5098" x2="627.4131" y2="757.5098">
					<stop  offset="0" style="stop-color:#BFD6DF"/>
					<stop  offset="1" style="stop-color:#BFD6DF;stop-opacity:0.7"/>
				</linearGradient>
				<path fill="url(#SVGID_9_)" d="M614.473,727.434c3.739,20.762,1.441,40.486-5.544,60.328c-2.414,6.856,8.45,9.759,10.841,2.969
					c7.67-21.783,9.655-43.477,5.56-66.207C624.045,717.387,613.198,720.354,614.473,727.434L614.473,727.434z"/>
			</g>
		</g>
		<g>
			<g>
				<linearGradient id="SVGID_10_" gradientUnits="userSpaceOnUse" x1="584.4014" y1="759.5312" x2="598.7822" y2="759.5312">
					<stop  offset="0" style="stop-color:#BFD6DF"/>
					<stop  offset="1" style="stop-color:#BFD6DF;stop-opacity:0.7"/>
				</linearGradient>
				<path fill="url(#SVGID_10_)" d="M587.305,745.988c0.724,8.724-0.306,17.082-2.666,25.492c-1.965,6.995,8.884,9.939,10.842,2.968
					c2.601-9.266,3.863-18.763,3.064-28.378C597.949,738.895,586.703,738.772,587.305,745.988L587.305,745.988z"/>
			</g>
		</g>
	</g>
	<g>
		<path fill="#FDF491" d="M119.348,589.471c-0.605,0-1.217-0.185-1.742-0.57l-9.347-6.837c-0.791-0.579-1.211-1.479-1.211-2.39
			c0-0.605,0.185-1.217,0.571-1.743c0.964-1.315,2.814-1.605,4.131-0.641l9.347,6.839c0.792,0.579,1.211,1.478,1.211,2.389
			c0,0.604-0.185,1.217-0.57,1.742C121.158,589.052,120.259,589.471,119.348,589.471z"/>
	</g>
	<g>
		<circle fill="#FDF491" cx="147.02" cy="602.399" r="19.766"/>
	</g>
	<g>
		<path fill="#FDF491" d="M109.597,604.848H98.015c-1.632,0-2.956-1.323-2.956-2.957c0-1.633,1.324-2.955,2.956-2.955h11.582
			c1.633,0,2.957,1.322,2.957,2.955C112.553,603.524,111.229,604.848,109.597,604.848z"/>
	</g>
	<g>
		<path fill="#FFFFFF" d="M147.019,622.165c3.984,0,7.687-1.188,10.791-3.217c-0.832,0.106-1.687,0.183-2.59,0.183
			c-22.334,0-22.669-34.064-1.04-35.138c-2.222-0.865-4.632-1.358-7.161-1.358c-10.916,0-19.765,8.849-19.765,19.765
			S136.103,622.165,147.019,622.165z"/>
	</g>
	<g>
		<path fill="#FDF491" d="M110.007,627.062c-0.911,0-1.811-0.418-2.389-1.211c-0.386-0.525-0.571-1.137-0.571-1.742
			c0-0.911,0.42-1.81,1.211-2.389l9.347-6.838c1.316-0.966,3.168-0.678,4.131,0.64c0.385,0.526,0.57,1.139,0.57,1.743
			c0,0.91-0.419,1.811-1.211,2.389l-9.347,6.839C111.224,626.877,110.612,627.062,110.007,627.062z"/>
	</g>
	<path fill="#FFFFFF" d="M490.576,327.753l5.471-86.503c-27.394-3.05-56.13-3.201-85.777,0.558l-7.557,94.619
		C432.67,329.712,460.845,327.448,490.576,327.753z"/>
	<path fill="#FFFFFF" d="M400.954,357.913l-9.039,113.152c34.029-11.999,64.143-20.997,91.284-27.212l6.087-95.298
		C459.046,348.12,430.313,350.799,400.954,357.913z"/>
	<path fill="#FFFFFF" d="M595.465,265.932c-24.221-9.415-50.537-17.051-78.479-21.754l-5.496,84.611
		c43.479,3.254,80.688,13.072,80.688,13.072C593.788,302.411,595.465,265.932,595.465,265.932z"/>
	<path fill="#FFFFFF" d="M591.354,362.981c-40.754-11.351-81.251-13.538-81.251-13.538l-5.94,90.734
		c32.093-5.945,59.861-7.564,85.136-5.285C589.046,426.448,590.07,395.889,591.354,362.981z"/>
	<path fill="#FFFFFF" d="M609.998,437.612c20.896,3.871,40.271,10.634,59.306,20.032c0,0,1.492-29.883,3.209-63.132
		c-25.276-14.981-60.512-25.493-60.512-25.493L609.998,437.612z"/>
	<path fill="#FFFFFF" d="M614.714,273.982l-2.135,73.546c32.531,9.368,61.089,24.167,61.089,24.167
		c1.715-32.625,3.353-61.768,3.684-62.925C659.143,296.43,638.094,284.441,614.714,273.982z"/>
	<path fill="#FFFFFF" d="M771.802,405.42c-0.949,14.521-2.005,28.033-3.084,42.681c18.299,22.121,33.429,48.464,42.172,75.045
		C809.189,485.775,796.491,444.312,771.802,405.42z"/>
	<path fill="#FFFFFF" d="M766.396,479.662c-1.286,17.428-2.539,35.745-3.626,52.976c31.683,45.844,34.548,92.688,34.548,92.688
		C807.988,573.819,795.979,524.115,766.396,479.662z"/>
	<path fill="#FFFFFF" d="M749.327,426.56l2.732-48.52c-5.318-6.542-11.037-13.035-17.206-19.457
		c-9.249-10.969-22.029-23.167-37.779-35.464c-0.683,19.723-1.921,39.946-3.262,59.888
		C714.246,395.116,737.436,414.27,749.327,426.56z"/>
	<path fill="#FFFFFF" d="M692.202,406.41c-1.4,20.679-2.724,41.334-3.473,61.797c12.285,7.248,24.595,15.552,37.254,24.889
		c6.836,5.469,13.009,11.213,18.603,17.112l3.077-55.165C733.617,438.658,714.862,421.29,692.202,406.41z"/>
	<g opacity="0.4">
		<linearGradient id="SVGID_11_" gradientUnits="userSpaceOnUse" x1="391.9155" y1="414.4893" x2="483.1992" y2="414.4893">
			<stop  offset="0" style="stop-color:#BFD6DF"/>
			<stop  offset="1" style="stop-color:#BFD6DF;stop-opacity:0.7"/>
		</linearGradient>
		<path fill="url(#SVGID_11_)" d="M400.954,357.913c-0.038,0.009-9.039,113.152-9.039,113.152
			c37.706-13.237,62.265-19.957,76.247-23.562c10.252-2.643,15.037-3.65,15.037-3.65S413.868,453.749,400.954,357.913z"/>
	</g>
	<g opacity="0.4">
		<linearGradient id="SVGID_12_" gradientUnits="userSpaceOnUse" x1="402.7134" y1="289.0464" x2="490.5762" y2="289.0464">
			<stop  offset="0" style="stop-color:#BFD6DF"/>
			<stop  offset="1" style="stop-color:#BFD6DF;stop-opacity:0.7"/>
		</linearGradient>
		<path fill="url(#SVGID_12_)" d="M490.576,327.753c-12.855-1.25-73.208-11.071-80.306-85.946l-7.557,94.479
			C433.362,329.503,459.97,327.61,490.576,327.753z"/>
	</g>
	<g opacity="0.4">
		<linearGradient id="SVGID_13_" gradientUnits="userSpaceOnUse" x1="511.4902" y1="293.0195" x2="592.1162" y2="293.0195">
			<stop  offset="0" style="stop-color:#BFD6DF"/>
			<stop  offset="1" style="stop-color:#BFD6DF;stop-opacity:0.7"/>
		</linearGradient>
		<path fill="url(#SVGID_13_)" d="M592.116,341.861c0,0-67.15-13.499-75.13-97.683l-5.496,84.611
			C554.481,331.767,592.116,341.861,592.116,341.861z"/>
	</g>
	<g opacity="0.4">
		<linearGradient id="SVGID_14_" gradientUnits="userSpaceOnUse" x1="504.1631" y1="394.6865" x2="589.2988" y2="394.6865">
			<stop  offset="0" style="stop-color:#BFD6DF"/>
			<stop  offset="1" style="stop-color:#BFD6DF;stop-opacity:0.7"/>
		</linearGradient>
		<path fill="url(#SVGID_14_)" d="M510.104,349.319l-5.94,90.734c47.73-9.341,81.663-5.673,85.136-5.284
			C584.58,434.205,520.603,425.142,510.104,349.319z"/>
	</g>
	<g opacity="0.4">
		<linearGradient id="SVGID_15_" gradientUnits="userSpaceOnUse" x1="609.998" y1="413.332" x2="669.3037" y2="413.332">
			<stop  offset="0" style="stop-color:#BFD6DF"/>
			<stop  offset="1" style="stop-color:#BFD6DF;stop-opacity:0.7"/>
		</linearGradient>
		<path fill="url(#SVGID_15_)" d="M669.304,457.645c-14.676-8.915-49.658-35.499-57.303-88.625l-2.003,68.593
			C640.769,443.185,669.304,457.645,669.304,457.645z"/>
	</g>
	<g opacity="0.4">
		<linearGradient id="SVGID_16_" gradientUnits="userSpaceOnUse" x1="612.5791" y1="322.8389" x2="673.668" y2="322.8389">
			<stop  offset="0" style="stop-color:#BFD6DF"/>
			<stop  offset="1" style="stop-color:#BFD6DF;stop-opacity:0.7"/>
		</linearGradient>
		<path fill="url(#SVGID_16_)" d="M614.714,273.982l-2.135,73.546c22.923,6.689,46.76,16.482,61.089,24.167
			C657.527,359.593,620.031,330.087,614.714,273.982z"/>
	</g>
	<g opacity="0.4">
		<linearGradient id="SVGID_17_" gradientUnits="userSpaceOnUse" x1="693.8125" y1="374.8398" x2="749.3271" y2="374.8398">
			<stop  offset="0" style="stop-color:#BFD6DF"/>
			<stop  offset="1" style="stop-color:#BFD6DF;stop-opacity:0.7"/>
		</linearGradient>
		<path fill="url(#SVGID_17_)" d="M697.074,323.119c0,0-2.353,54.657-3.262,59.888c0,0,31.305,18.889,55.515,43.553
			C736.335,409.33,701.916,364.174,697.074,323.119z"/>
	</g>
	<g opacity="0.4">
		<linearGradient id="SVGID_18_" gradientUnits="userSpaceOnUse" x1="736.834" y1="502.9434" x2="737.3555" y2="502.9434">
			<stop  offset="0" style="stop-color:#BFD6DF"/>
			<stop  offset="1" style="stop-color:#BFD6DF;stop-opacity:0.7"/>
		</linearGradient>
		<path fill="url(#SVGID_18_)" d="M736.834,502.666C737.506,503.42,737.553,503.395,736.834,502.666L736.834,502.666z"/>
		<linearGradient id="SVGID_19_" gradientUnits="userSpaceOnUse" x1="688.7295" y1="454.5381" x2="736.834" y2="454.5381">
			<stop  offset="0" style="stop-color:#BFD6DF"/>
			<stop  offset="1" style="stop-color:#BFD6DF;stop-opacity:0.7"/>
		</linearGradient>
		<path fill="url(#SVGID_19_)" d="M692.202,406.41l-3.473,61.797c32.62,19.492,45.41,31.723,48.104,34.459
			c-0.202-0.229-0.458-0.521-0.77-0.892C725.003,488.615,704.945,461.837,692.202,406.41z"/>
	</g>
	<g opacity="0.4">
		<linearGradient id="SVGID_20_" gradientUnits="userSpaceOnUse" x1="768.8066" y1="448.6924" x2="797.7324" y2="448.6924">
			<stop  offset="0" style="stop-color:#BFD6DF"/>
			<stop  offset="1" style="stop-color:#BFD6DF;stop-opacity:0.7"/>
		</linearGradient>
		<path fill="url(#SVGID_20_)" d="M797.732,491.964c0,0-28.746-50.154-25.931-86.543l-2.995,42.681
			c6.39,7.88,14.105,18.789,19.688,27.696C794.221,484.931,797.732,491.964,797.732,491.964z"/>
	</g>
	<g opacity="0.4">
		<linearGradient id="SVGID_21_" gradientUnits="userSpaceOnUse" x1="762.7705" y1="532.8555" x2="788.9434" y2="532.8555">
			<stop  offset="0" style="stop-color:#BFD6DF"/>
			<stop  offset="1" style="stop-color:#BFD6DF;stop-opacity:0.7"/>
		</linearGradient>
		<path fill="url(#SVGID_21_)" d="M766.396,479.662l-3.626,52.976c15.964,22.088,26.173,53.412,26.173,53.412
			C788.16,560.631,763.581,516.052,766.396,479.662z"/>
	</g>
	<g>
		<linearGradient id="SVGID_22_" gradientUnits="userSpaceOnUse" x1="380.6558" y1="503.4131" x2="821.9121" y2="503.4131">
			<stop  offset="0" style="stop-color:#EF3749"/>
			<stop  offset="1" style="stop-color:#F05464;stop-opacity:0.7"/>
		</linearGradient>
		<path fill="url(#SVGID_22_)" d="M800.122,679.01l-18.526-9.222c23.543-47.31,25.897-98.479,6.808-147.974
			c-24.117-62.534-80.728-116.377-151.436-144.033c-73.774-28.301-137.552-31.128-178.057-28.506
			c-43.974,2.842-70.82,12.533-71.086,12.629l-7.169-19.412c1.175-0.435,29.289-10.676,75.98-13.808
			c42.761-2.863,110.062-0.024,187.808,29.797c76.085,29.76,137.098,88.025,163.27,155.884
			C828.948,569.428,826.323,626.361,800.122,679.01z"/>
	</g>
</g>
</svg>
