<?xml version="1.0" encoding="utf-8"?>
<!-- Generator: Adobe Illustrator 15.1.0, SVG Export Plug-In . SVG Version: 6.00 Build 0)  -->
<!DOCTYPE svg PUBLIC "-//W3C//DTD SVG 1.1//EN" "http://www.w3.org/Graphics/SVG/1.1/DTD/svg11.dtd">
<svg version="1.1" id="Layer_1" xmlns="http://www.w3.org/2000/svg" xmlns:xlink="http://www.w3.org/1999/xlink" x="0px" y="0px"
	 width="864px" height="864px" viewBox="0 0 864 864" enable-background="new 0 0 864 864" xml:space="preserve">
<g>
	<g>
		<g>
			<path fill="#FFFFFF" d="M68.986,317.261c0,0,250.053-200.011,522.052-103.71c171.766,59.762,297.536,223.728,246.893,405.743
				c-38.849,137.041-175.092,194.06-175.092,194.06s58.181-169.368-92.475-206.573c-133.868-29.184-196.427,89.848-351.091,102.979
				S14.999,664.526,14.999,664.526L68.986,317.261z"/>
		</g>
		<g>
			<path fill="#FFFFFF" d="M33.831,324.593c0,0,210.14-184.536,469.248-149.148c281.664,46.385,341.771,245.948,341.771,245.948
				S926.275,126.99,515.643,34.074c-150.393-26.48-277.24-3.3-277.24-3.3l-6.15,33.299l-4.357,23.593
				C60.932,191.022,33.831,324.593,33.831,324.593z"/>
		</g>
		<g>
			<path fill="#FFFFFF" d="M227.896,87.666c67.495-33.92,192.559-14.663,192.559-14.663S258.98,86.621,122.13,173.578
				C122.13,173.578,176.3,115.803,227.896,87.666z"/>
		</g>
		<path fill="#FFFFFF" d="M135.805,325.284c-16.196,8.707-32.571,18.242-48.59,28.66l-25.317,152.93c0,0,19.322,3.707,51.233,6.024
			L135.805,325.284z"/>
		<path fill="#FFFFFF" d="M182.519,304.083c-8.309,3.87-16.827,8.026-25.44,12.399l-23.555,197.39
			c17.548,0.861,37.872,1.197,60.215,0.396l25.149-226.17C207.418,292.852,195.2,298.174,182.519,304.083z"/>
		<path fill="#FFFFFF" d="M300.711,258.641c0,0-23.921,6.819-59.306,20.454l-27.812,234.171c18.675-1.202,38.461-3.223,58.989-6.394
			L300.711,258.641z"/>
		<path opacity="0.4" fill="#FFFFFF" enable-background="new    " d="M300.711,258.641c-4.539,40.078-28.129,248.233-28.129,248.233
			c-21.756,3.333-39.447,5.188-58.989,6.394C213.593,513.268,264.254,420.414,300.711,258.641z"/>
		<path opacity="0.4" fill="#FFFFFF" enable-background="new    " d="M218.888,288.096c-4.542,40.078-25.149,226.17-25.149,226.17
			c-27.646,0.868-41.523,0.395-60.215-0.396C133.524,513.872,183.157,474.676,218.888,288.096z"/>
		<g opacity="0.4">
			<path fill="#FFFFFF" d="M135.805,325.284c-4.543,40.079-22.673,187.614-22.673,187.614c-30.382-2.852-33.174-3.29-51.233-6.024
				C61.898,506.874,100.074,511.864,135.805,325.284z"/>
		</g>
		<g>
			<g>
				<path fill="#FFFFFF" d="M249.342,724.253l-11.833,115.381c0,0-155.32,18.49-226.147-149.403
					C117.69,759.753,249.342,724.253,249.342,724.253z"/>
			</g>
			<g>
				<g>
					<path fill="#FFFFFF" d="M282.313,750.268c41.701-19.841,83.402-39.682,125.101-59.522c6.456-3.068,0.804-12.624-5.615-9.568
						c-41.703,19.84-83.403,39.682-125.104,59.522C270.242,743.768,275.893,753.321,282.313,750.268L282.313,750.268z"/>
				</g>
			</g>
			<g>
				<g>
					<path fill="#FFFFFF" d="M296.318,775.793c41.701-19.844,83.401-39.686,125.103-59.525c6.456-3.07,0.803-12.626-5.617-9.572
						c-41.701,19.843-83.403,39.687-125.103,59.525C284.246,769.291,289.899,778.847,296.318,775.793L296.318,775.793z"/>
				</g>
			</g>
			<g>
				<g>
					<path fill="#FFFFFF" d="M283.744,812.783c41.701-19.841,83.402-39.683,125.1-59.524c6.457-3.07,0.805-12.624-5.616-9.569
						c-41.7,19.841-83.399,39.684-125.1,59.523C271.672,806.284,277.325,815.838,283.744,812.783L283.744,812.783z"/>
				</g>
			</g>
			<g>
				<path fill="#FFFFFF" d="M451.258,644.373l-11.094,120.859c0,0,54.026-50.597,103.546-12.134l86.37-86.157
					C630.08,666.941,577.32,583.61,451.258,644.373z"/>
			</g>
			<g>
				<g>
					<path fill="#FFFFFF" d="M634.765,695.594c3.88,7.204,6.165,18.062,7.479,27.191c3.813,26.479-1.688,53.75-10.65,78.616
						c-2.431,6.748,8.298,9.605,10.703,2.928c9.53-26.444,14.568-54.833,10.863-82.899c-1.396-10.587-3.699-21.932-8.823-31.452
						C640.945,683.679,631.377,689.299,634.765,695.594L634.765,695.594z"/>
				</g>
			</g>
			<g>
				<g>
					<path fill="#FFFFFF" d="M611.879,721.923c3.689,20.494,1.421,39.965-5.474,59.549c-2.384,6.77,8.342,9.634,10.701,2.932
						c7.57-21.503,9.529-42.915,5.486-65.354C621.325,712.006,610.62,714.936,611.879,721.923L611.879,721.923z"/>
				</g>
			</g>
			<g>
				<g>
					<path fill="#FFFFFF" d="M585.06,740.237c0.715,8.61-0.301,16.861-2.631,25.163c-1.938,6.904,8.77,9.811,10.701,2.93
						c2.567-9.146,3.814-18.521,3.026-28.012C595.566,733.235,584.467,733.115,585.06,740.237L585.06,740.237z"/>
				</g>
			</g>
		</g>
		<g>
			<path fill="#FFFFFF" d="M123.143,585.741c-0.597,0-1.201-0.184-1.72-0.563l-9.226-6.75c-0.781-0.569-1.196-1.459-1.196-2.357
				c0-0.598,0.183-1.201,0.564-1.721c0.952-1.298,2.778-1.585,4.078-0.632l9.227,6.75c0.781,0.571,1.195,1.459,1.195,2.357
				c0,0.598-0.182,1.202-0.563,1.721C124.93,585.326,124.042,585.741,123.143,585.741z"/>
		</g>
		<g>
			<circle fill="#FFFFFF" cx="150.458" cy="598.503" r="19.51"/>
		</g>
		<g>
			<path fill="#FFFFFF" d="M113.518,600.918h-11.432c-1.611,0-2.918-1.306-2.918-2.918c0-1.611,1.307-2.917,2.918-2.917h11.432
				c1.612,0,2.918,1.306,2.918,2.917C116.436,599.612,115.13,600.918,113.518,600.918z"/>
		</g>
		<g>
			<path fill="#FFFFFF" d="M150.457,618.014c3.933,0,7.588-1.175,10.651-3.177c-0.821,0.105-1.665,0.18-2.556,0.18
				c-22.046,0-22.376-33.623-1.026-34.684c-2.194-0.854-4.572-1.341-7.069-1.341c-10.774,0-19.51,8.733-19.51,19.511
				C130.947,609.277,139.683,618.014,150.457,618.014z"/>
		</g>
		<g>
			<path fill="#FFFFFF" d="M113.922,622.846c-0.898,0-1.787-0.413-2.357-1.193c-0.381-0.52-0.564-1.123-0.564-1.721
				c0-0.898,0.415-1.786,1.196-2.357l9.226-6.751c1.3-0.952,3.128-0.666,4.078,0.634c0.381,0.52,0.563,1.122,0.563,1.72
				c0,0.9-0.415,1.786-1.195,2.359l-9.227,6.749C115.125,622.665,114.52,622.846,113.922,622.846z"/>
		</g>
		<path fill="#FFFFFF" d="M489.579,327.4l5.399-85.387c-27.041-3.011-55.402-3.159-84.668,0.55l-7.459,93.398
			C432.42,329.334,460.231,327.101,489.579,327.4z"/>
		<path fill="#FFFFFF" d="M401.115,357.171l-8.921,111.692c33.589-11.845,63.314-20.728,90.104-26.861l6.009-94.067
			C458.457,347.504,430.095,350.149,401.115,357.171z"/>
		<path fill="#FFFFFF" d="M593.115,266.378c-23.908-9.293-49.885-16.831-77.466-21.473l-5.426,83.519
			c42.916,3.212,79.646,12.903,79.646,12.903C591.46,302.385,593.115,266.378,593.115,266.378z"/>
		<path fill="#FFFFFF" d="M589.058,362.174c-40.229-11.204-80.204-13.363-80.204-13.363l-5.86,89.564
			c31.677-5.869,59.089-7.467,84.035-5.217C586.778,424.821,587.791,394.657,589.058,362.174z"/>
		<path fill="#FFFFFF" d="M607.46,435.842c20.627,3.821,39.752,10.496,58.541,19.775c0,0,1.473-29.499,3.169-62.319
			c-24.952-14.788-59.731-25.164-59.731-25.164L607.46,435.842z"/>
		<path fill="#FFFFFF" d="M612.114,274.324l-2.104,72.596c32.11,9.248,60.3,23.856,60.3,23.856
			c1.691-32.204,3.31-60.971,3.635-62.113C655.971,296.481,635.193,284.648,612.114,274.324z"/>
		<path fill="#FFFFFF" d="M767.178,404.066c-0.938,14.333-1.979,27.67-3.046,42.13c18.062,21.836,32.996,47.838,41.629,74.076
			C804.08,483.383,791.546,442.455,767.178,404.066z"/>
		<path fill="#FFFFFF" d="M761.842,477.35c-1.271,17.204-2.508,35.284-3.579,52.291c31.272,45.253,34.102,91.492,34.102,91.492
			C802.896,570.291,791.039,521.229,761.842,477.35z"/>
		<path fill="#FFFFFF" d="M744.991,424.933l2.697-47.894c-5.251-6.458-10.896-12.867-16.984-19.207
			c-9.13-10.826-21.744-22.868-37.292-35.005c-0.674,19.468-1.896,39.43-3.218,59.115
			C710.362,393.894,733.254,412.801,744.991,424.933z"/>
		<path fill="#FFFFFF" d="M688.604,405.042c-1.383,20.414-2.688,40.8-3.428,61c12.127,7.153,24.279,15.351,36.772,24.569
			c6.747,5.396,12.842,11.065,18.362,16.887l3.036-54.449C729.483,436.875,710.972,419.729,688.604,405.042z"/>
		<g opacity="0.4">
			<path fill="#FFFFFF" d="M401.115,357.171c-0.037,0.01-8.921,111.692-8.921,111.692c37.218-13.067,61.461-19.699,75.262-23.257
				c10.119-2.609,14.842-3.604,14.842-3.604S413.862,451.771,401.115,357.171z"/>
		</g>
		<g opacity="0.4">
			<path fill="#FFFFFF" d="M489.579,327.4c-12.688-1.234-72.262-10.93-79.269-84.837l-7.459,93.26
				C433.105,329.128,459.369,327.26,489.579,327.4z"/>
		</g>
		<g opacity="0.4">
			<path fill="#FFFFFF" d="M589.81,341.326c0,0-66.282-13.324-74.159-96.421l-5.426,83.519
				C552.66,331.363,589.81,341.326,589.81,341.326z"/>
		</g>
		<g opacity="0.4">
			<path fill="#FFFFFF" d="M508.854,348.689l-5.86,89.563c47.114-9.221,80.607-5.601,84.035-5.217
				C582.371,432.48,519.218,423.532,508.854,348.689z"/>
		</g>
		<g opacity="0.4">
			<path fill="#FFFFFF" d="M666.001,455.617c-14.487-8.802-49.018-35.042-56.563-87.483l-1.978,67.708
				C637.834,441.343,666.001,455.617,666.001,455.617z"/>
		</g>
		<g opacity="0.4">
			<path fill="#FFFFFF" d="M612.114,274.324l-2.104,72.596c22.626,6.604,46.154,16.271,60.3,23.856
				C654.377,358.83,617.364,329.705,612.114,274.324z"/>
		</g>
		<g opacity="0.4">
			<path fill="#FFFFFF" d="M693.412,322.827c0,0-2.32,53.951-3.218,59.115c0,0,30.899,18.645,54.797,42.99
				C732.167,407.925,698.191,363.351,693.412,322.827z"/>
		</g>
		<g opacity="0.4">
			<path fill="#FFFFFF" d="M732.658,500.056C733.322,500.799,733.369,500.775,732.658,500.056L732.658,500.056z"/>
			<path fill="#FFFFFF" d="M688.604,405.042l-3.428,61c32.2,19.241,44.824,31.314,47.482,34.014
				c-0.198-0.225-0.452-0.514-0.758-0.879C720.981,486.188,701.183,459.754,688.604,405.042z"/>
		</g>
		<g opacity="0.4">
			<path fill="#FFFFFF" d="M792.771,489.493c0,0-28.375-49.508-25.595-85.427l-2.959,42.13c6.309,7.778,13.924,18.547,19.435,27.338
				C789.306,482.55,792.771,489.493,792.771,489.493z"/>
		</g>
		<g opacity="0.4">
			<path fill="#FFFFFF" d="M761.842,477.35l-3.579,52.291c15.755,21.805,25.835,52.724,25.835,52.724
				C783.322,557.271,759.061,513.27,761.842,477.35z"/>
		</g>
	</g>
	<g>
		<g>
			
				<linearGradient id="SVGID_1_" gradientUnits="userSpaceOnUse" x1="14.999" y1="364.6553" x2="849.2549" y2="364.6553" gradientTransform="matrix(1 0 0 -1 0 865)">
				<stop  offset="0" style="stop-color:#ED1C24"/>
				<stop  offset="1" style="stop-color:#ED1C24;stop-opacity:0.7"/>
			</linearGradient>
			<path fill="url(#SVGID_1_)" d="M68.986,317.261c0,0,250.053-200.011,522.052-103.71
				c171.766,59.762,297.536,223.728,246.893,405.743c-38.849,137.041-175.092,194.06-175.092,194.06s58.181-169.368-92.475-206.573
				c-133.868-29.184-196.427,89.848-351.091,102.979S14.999,664.526,14.999,664.526L68.986,317.261z"/>
		</g>
		<g>
			
				<linearGradient id="SVGID_2_" gradientUnits="userSpaceOnUse" x1="33.8311" y1="643.6113" x2="851.416" y2="643.6113" gradientTransform="matrix(1 0 0 -1 0 865)">
				<stop  offset="0" style="stop-color:#BFD6DF"/>
				<stop  offset="1" style="stop-color:#BFD6DF;stop-opacity:0.7"/>
			</linearGradient>
			<path fill="url(#SVGID_2_)" d="M33.831,324.593c0,0,210.14-184.536,469.248-149.148
				c281.664,46.385,341.771,245.948,341.771,245.948S926.275,126.99,515.643,34.074c-150.393-26.48-277.24-3.3-277.24-3.3
				l-6.15,33.299l-4.357,23.593C60.932,191.022,33.831,324.593,33.831,324.593z"/>
		</g>
		<path fill="#FFFFFF" d="M135.805,325.284c-16.196,8.707-32.571,18.242-48.59,28.66l-25.317,152.93c0,0,19.322,3.707,51.233,6.024
			L135.805,325.284z"/>
		<path fill="#FFFFFF" d="M182.519,304.083c-8.309,3.87-16.827,8.026-25.44,12.399l-23.555,197.39
			c17.548,0.861,37.872,1.197,60.215,0.396l25.149-226.17C207.418,292.852,195.2,298.174,182.519,304.083z"/>
		<path fill="#FFFFFF" d="M300.711,258.641c0,0-23.921,6.819-59.306,20.454l-27.812,234.171c18.675-1.202,38.461-3.223,58.989-6.394
			L300.711,258.641z"/>
		
			<linearGradient id="SVGID_3_" gradientUnits="userSpaceOnUse" x1="213.5928" y1="479.0459" x2="300.7109" y2="479.0459" gradientTransform="matrix(1 0 0 -1 0 865)">
			<stop  offset="0" style="stop-color:#BFD6DF"/>
			<stop  offset="1" style="stop-color:#BFD6DF;stop-opacity:0.7"/>
		</linearGradient>
		<path opacity="0.4" fill="url(#SVGID_3_)" enable-background="new    " d="M300.711,258.641
			c-4.539,40.078-28.129,248.233-28.129,248.233c-21.756,3.333-39.447,5.188-58.989,6.394
			C213.593,513.268,264.254,420.414,300.711,258.641z"/>
		
			<linearGradient id="SVGID_4_" gradientUnits="userSpaceOnUse" x1="133.5239" y1="463.5859" x2="218.8882" y2="463.5859" gradientTransform="matrix(1 0 0 -1 0 865)">
			<stop  offset="0" style="stop-color:#BFD6DF"/>
			<stop  offset="1" style="stop-color:#BFD6DF;stop-opacity:0.7"/>
		</linearGradient>
		<path opacity="0.4" fill="url(#SVGID_4_)" enable-background="new    " d="M218.888,288.096
			c-4.542,40.078-25.149,226.17-25.149,226.17c-27.646,0.868-41.523,0.395-60.215-0.396
			C133.524,513.872,183.157,474.676,218.888,288.096z"/>
		<g opacity="0.4">
			
				<linearGradient id="SVGID_5_" gradientUnits="userSpaceOnUse" x1="61.8989" y1="445.9082" x2="135.8052" y2="445.9082" gradientTransform="matrix(1 0 0 -1 0 865)">
				<stop  offset="0" style="stop-color:#BFD6DF"/>
				<stop  offset="1" style="stop-color:#BFD6DF;stop-opacity:0.7"/>
			</linearGradient>
			<path fill="url(#SVGID_5_)" d="M135.805,325.284c-4.543,40.079-22.673,187.614-22.673,187.614
				c-30.382-2.852-33.174-3.29-51.233-6.024C61.898,506.874,100.074,511.864,135.805,325.284z"/>
		</g>
		<g>
			<g>
				<path fill="#91BFC8" d="M249.342,724.253l-11.833,115.381c0,0-155.32,18.49-226.147-149.403
					C117.69,759.753,249.342,724.253,249.342,724.253z"/>
			</g>
			<g>
				<g>
					<path fill="#91BFC8" d="M282.313,750.268c41.701-19.841,83.402-39.682,125.101-59.522c6.456-3.068,0.804-12.624-5.615-9.568
						c-41.703,19.84-83.403,39.682-125.104,59.522C270.242,743.768,275.893,753.321,282.313,750.268L282.313,750.268z"/>
				</g>
			</g>
			<g>
				<g>
					<path fill="#91BFC8" d="M296.318,775.793c41.701-19.844,83.401-39.686,125.103-59.525c6.456-3.07,0.803-12.626-5.617-9.572
						c-41.701,19.843-83.403,39.687-125.103,59.525C284.246,769.291,289.899,778.847,296.318,775.793L296.318,775.793z"/>
				</g>
			</g>
			<g>
				<g>
					<path fill="#91BFC8" d="M283.744,812.783c41.701-19.841,83.402-39.683,125.1-59.524c6.457-3.07,0.805-12.624-5.616-9.569
						c-41.7,19.841-83.399,39.684-125.1,59.523C271.672,806.284,277.325,815.838,283.744,812.783L283.744,812.783z"/>
				</g>
			</g>
			<g>
				
					<linearGradient id="SVGID_6_" gradientUnits="userSpaceOnUse" x1="440.1641" y1="171.2886" x2="630.0801" y2="171.2886" gradientTransform="matrix(1 0 0 -1 0 865)">
					<stop  offset="0" style="stop-color:#90BCC6"/>
					<stop  offset="1" style="stop-color:#BFD6DF;stop-opacity:0.7"/>
				</linearGradient>
				<path fill="url(#SVGID_6_)" d="M451.258,644.373l-11.094,120.859c0,0,54.026-50.597,103.546-12.134l86.37-86.157
					C630.08,666.941,577.32,583.61,451.258,644.373z"/>
			</g>
			<g>
				<g>
					
						<linearGradient id="SVGID_7_" gradientUnits="userSpaceOnUse" x1="631.2373" y1="117.3262" x2="654.3818" y2="117.3262" gradientTransform="matrix(1 0 0 -1 0 865)">
						<stop  offset="0" style="stop-color:#BFD6DF"/>
						<stop  offset="1" style="stop-color:#BFD6DF;stop-opacity:0.7"/>
					</linearGradient>
					<path fill="url(#SVGID_7_)" d="M634.765,695.594c3.88,7.204,6.165,18.062,7.479,27.191c3.813,26.479-1.688,53.75-10.65,78.616
						c-2.431,6.748,8.298,9.605,10.703,2.928c9.53-26.444,14.568-54.833,10.863-82.899c-1.396-10.587-3.699-21.932-8.823-31.452
						C640.945,683.679,631.377,689.299,634.765,695.594L634.765,695.594z"/>
				</g>
			</g>
			<g>
				<g>
					
						<linearGradient id="SVGID_8_" gradientUnits="userSpaceOnUse" x1="606.0615" y1="113.3887" x2="624.6504" y2="113.3887" gradientTransform="matrix(1 0 0 -1 0 865)">
						<stop  offset="0" style="stop-color:#BFD6DF"/>
						<stop  offset="1" style="stop-color:#BFD6DF;stop-opacity:0.7"/>
					</linearGradient>
					<path fill="url(#SVGID_8_)" d="M611.879,721.923c3.689,20.494,1.421,39.965-5.474,59.549c-2.384,6.77,8.342,9.634,10.701,2.932
						c7.57-21.503,9.529-42.915,5.486-65.354C621.325,712.006,610.62,714.936,611.879,721.923L611.879,721.923z"/>
				</g>
			</g>
			<g>
				<g>
					
						<linearGradient id="SVGID_9_" gradientUnits="userSpaceOnUse" x1="582.1953" y1="111.3945" x2="596.3906" y2="111.3945" gradientTransform="matrix(1 0 0 -1 0 865)">
						<stop  offset="0" style="stop-color:#BFD6DF"/>
						<stop  offset="1" style="stop-color:#BFD6DF;stop-opacity:0.7"/>
					</linearGradient>
					<path fill="url(#SVGID_9_)" d="M585.06,740.237c0.715,8.61-0.301,16.861-2.631,25.163c-1.938,6.904,8.77,9.811,10.701,2.93
						c2.567-9.146,3.814-18.521,3.026-28.012C595.566,733.235,584.467,733.115,585.06,740.237L585.06,740.237z"/>
				</g>
			</g>
		</g>
		<g>
			<path fill="#FDF491" d="M123.143,585.741c-0.597,0-1.201-0.184-1.72-0.563l-9.226-6.75c-0.781-0.569-1.196-1.459-1.196-2.357
				c0-0.598,0.183-1.201,0.564-1.721c0.952-1.298,2.778-1.585,4.078-0.632l9.227,6.75c0.781,0.571,1.195,1.459,1.195,2.357
				c0,0.598-0.182,1.202-0.563,1.721C124.93,585.326,124.042,585.741,123.143,585.741z"/>
		</g>
		<g>
			<circle fill="#FDF491" cx="150.458" cy="598.503" r="19.51"/>
		</g>
		<g>
			<path fill="#FDF491" d="M113.518,600.918h-11.432c-1.611,0-2.918-1.306-2.918-2.918c0-1.611,1.307-2.917,2.918-2.917h11.432
				c1.612,0,2.918,1.306,2.918,2.917C116.436,599.612,115.13,600.918,113.518,600.918z"/>
		</g>
		<g>
			<path fill="#FFFFFF" d="M150.457,618.014c3.933,0,7.588-1.175,10.651-3.177c-0.821,0.105-1.665,0.18-2.556,0.18
				c-22.046,0-22.376-33.623-1.026-34.684c-2.194-0.854-4.572-1.341-7.069-1.341c-10.774,0-19.51,8.733-19.51,19.511
				C130.947,609.277,139.683,618.014,150.457,618.014z"/>
		</g>
		<g>
			<path fill="#FDF491" d="M113.922,622.846c-0.898,0-1.787-0.413-2.357-1.193c-0.381-0.52-0.564-1.123-0.564-1.721
				c0-0.898,0.415-1.786,1.196-2.357l9.226-6.751c1.3-0.952,3.128-0.666,4.078,0.634c0.381,0.52,0.563,1.122,0.563,1.72
				c0,0.9-0.415,1.786-1.195,2.359l-9.227,6.749C115.125,622.665,114.52,622.846,113.922,622.846z"/>
		</g>
		<path fill="#FFFFFF" d="M489.579,327.4l5.399-85.387c-27.041-3.011-55.402-3.159-84.668,0.55l-7.459,93.398
			C432.42,329.334,460.231,327.101,489.579,327.4z"/>
		<path fill="#FFFFFF" d="M401.115,357.171l-8.921,111.692c33.589-11.845,63.314-20.728,90.104-26.861l6.009-94.067
			C458.457,347.504,430.095,350.149,401.115,357.171z"/>
		<path fill="#FFFFFF" d="M593.115,266.378c-23.908-9.293-49.885-16.831-77.466-21.473l-5.426,83.519
			c42.916,3.212,79.646,12.903,79.646,12.903C591.46,302.385,593.115,266.378,593.115,266.378z"/>
		<path fill="#FFFFFF" d="M589.058,362.174c-40.229-11.204-80.204-13.363-80.204-13.363l-5.86,89.564
			c31.677-5.869,59.089-7.467,84.035-5.217C586.778,424.821,587.791,394.657,589.058,362.174z"/>
		<path fill="#FFFFFF" d="M607.46,435.842c20.627,3.821,39.752,10.496,58.541,19.775c0,0,1.473-29.499,3.169-62.319
			c-24.952-14.788-59.731-25.164-59.731-25.164L607.46,435.842z"/>
		<path fill="#FFFFFF" d="M612.114,274.324l-2.104,72.596c32.11,9.248,60.3,23.856,60.3,23.856
			c1.691-32.204,3.31-60.971,3.635-62.113C655.971,296.481,635.193,284.648,612.114,274.324z"/>
		<path fill="#FFFFFF" d="M767.178,404.066c-0.938,14.333-1.979,27.67-3.046,42.13c18.062,21.836,32.996,47.838,41.629,74.076
			C804.08,483.383,791.546,442.455,767.178,404.066z"/>
		<path fill="#FFFFFF" d="M761.842,477.35c-1.271,17.204-2.508,35.284-3.579,52.291c31.272,45.253,34.102,91.492,34.102,91.492
			C802.896,570.291,791.039,521.229,761.842,477.35z"/>
		<path fill="#FFFFFF" d="M744.991,424.933l2.697-47.894c-5.251-6.458-10.896-12.867-16.984-19.207
			c-9.13-10.826-21.744-22.868-37.292-35.005c-0.674,19.468-1.896,39.43-3.218,59.115
			C710.362,393.894,733.254,412.801,744.991,424.933z"/>
		<path fill="#FFFFFF" d="M688.604,405.042c-1.383,20.414-2.688,40.8-3.428,61c12.127,7.153,24.279,15.351,36.772,24.569
			c6.747,5.396,12.842,11.065,18.362,16.887l3.036-54.449C729.483,436.875,710.972,419.729,688.604,405.042z"/>
		<g opacity="0.4">
			
				<linearGradient id="SVGID_10_" gradientUnits="userSpaceOnUse" x1="392.1938" y1="451.9824" x2="482.2979" y2="451.9824" gradientTransform="matrix(1 0 0 -1 0 865)">
				<stop  offset="0" style="stop-color:#BFD6DF"/>
				<stop  offset="1" style="stop-color:#BFD6DF;stop-opacity:0.7"/>
			</linearGradient>
			<path fill="url(#SVGID_10_)" d="M401.115,357.171c-0.037,0.01-8.921,111.692-8.921,111.692
				c37.218-13.067,61.461-19.699,75.262-23.257c10.119-2.609,14.842-3.604,14.842-3.604S413.862,451.771,401.115,357.171z"/>
		</g>
		<g opacity="0.4">
			
				<linearGradient id="SVGID_11_" gradientUnits="userSpaceOnUse" x1="402.8516" y1="575.8066" x2="489.5791" y2="575.8066" gradientTransform="matrix(1 0 0 -1 0 865)">
				<stop  offset="0" style="stop-color:#BFD6DF"/>
				<stop  offset="1" style="stop-color:#BFD6DF;stop-opacity:0.7"/>
			</linearGradient>
			<path fill="url(#SVGID_11_)" d="M489.579,327.4c-12.688-1.234-72.262-10.93-79.269-84.837l-7.459,93.26
				C433.105,329.128,459.369,327.26,489.579,327.4z"/>
		</g>
		<g opacity="0.4">
			
				<linearGradient id="SVGID_12_" gradientUnits="userSpaceOnUse" x1="510.2246" y1="571.8848" x2="589.8096" y2="571.8848" gradientTransform="matrix(1 0 0 -1 0 865)">
				<stop  offset="0" style="stop-color:#BFD6DF"/>
				<stop  offset="1" style="stop-color:#BFD6DF;stop-opacity:0.7"/>
			</linearGradient>
			<path fill="url(#SVGID_12_)" d="M589.81,341.326c0,0-66.282-13.324-74.159-96.421l-5.426,83.519
				C552.66,331.363,589.81,341.326,589.81,341.326z"/>
		</g>
		<g opacity="0.4">
			
				<linearGradient id="SVGID_13_" gradientUnits="userSpaceOnUse" x1="502.9932" y1="471.5293" x2="587.0283" y2="471.5293" gradientTransform="matrix(1 0 0 -1 0 865)">
				<stop  offset="0" style="stop-color:#BFD6DF"/>
				<stop  offset="1" style="stop-color:#BFD6DF;stop-opacity:0.7"/>
			</linearGradient>
			<path fill="url(#SVGID_13_)" d="M508.854,348.689l-5.86,89.563c47.114-9.221,80.607-5.601,84.035-5.217
				C582.371,432.48,519.218,423.532,508.854,348.689z"/>
		</g>
		<g opacity="0.4">
			
				<linearGradient id="SVGID_14_" gradientUnits="userSpaceOnUse" x1="607.46" y1="453.125" x2="666.001" y2="453.125" gradientTransform="matrix(1 0 0 -1 0 865)">
				<stop  offset="0" style="stop-color:#BFD6DF"/>
				<stop  offset="1" style="stop-color:#BFD6DF;stop-opacity:0.7"/>
			</linearGradient>
			<path fill="url(#SVGID_14_)" d="M666.001,455.617c-14.487-8.802-49.018-35.042-56.563-87.483l-1.978,67.708
				C637.834,441.343,666.001,455.617,666.001,455.617z"/>
		</g>
		<g opacity="0.4">
			
				<linearGradient id="SVGID_15_" gradientUnits="userSpaceOnUse" x1="610.0098" y1="542.4492" x2="670.3096" y2="542.4492" gradientTransform="matrix(1 0 0 -1 0 865)">
				<stop  offset="0" style="stop-color:#BFD6DF"/>
				<stop  offset="1" style="stop-color:#BFD6DF;stop-opacity:0.7"/>
			</linearGradient>
			<path fill="url(#SVGID_15_)" d="M612.114,274.324l-2.104,72.596c22.626,6.604,46.154,16.271,60.3,23.856
				C654.377,358.83,617.364,329.705,612.114,274.324z"/>
		</g>
		<g opacity="0.4">
			
				<linearGradient id="SVGID_16_" gradientUnits="userSpaceOnUse" x1="690.1943" y1="491.1201" x2="744.9912" y2="491.1201" gradientTransform="matrix(1 0 0 -1 0 865)">
				<stop  offset="0" style="stop-color:#BFD6DF"/>
				<stop  offset="1" style="stop-color:#BFD6DF;stop-opacity:0.7"/>
			</linearGradient>
			<path fill="url(#SVGID_16_)" d="M693.412,322.827c0,0-2.32,53.951-3.218,59.115c0,0,30.899,18.645,54.797,42.99
				C732.167,407.925,698.191,363.351,693.412,322.827z"/>
		</g>
		<g opacity="0.4">
			
				<linearGradient id="SVGID_17_" gradientUnits="userSpaceOnUse" x1="732.6582" y1="364.6699" x2="733.1738" y2="364.6699" gradientTransform="matrix(1 0 0 -1 0 865)">
				<stop  offset="0" style="stop-color:#BFD6DF"/>
				<stop  offset="1" style="stop-color:#BFD6DF;stop-opacity:0.7"/>
			</linearGradient>
			<path fill="url(#SVGID_17_)" d="M732.658,500.056C733.322,500.799,733.369,500.775,732.658,500.056L732.658,500.056z"/>
			
				<linearGradient id="SVGID_18_" gradientUnits="userSpaceOnUse" x1="685.1758" y1="412.4512" x2="732.6582" y2="412.4512" gradientTransform="matrix(1 0 0 -1 0 865)">
				<stop  offset="0" style="stop-color:#BFD6DF"/>
				<stop  offset="1" style="stop-color:#BFD6DF;stop-opacity:0.7"/>
			</linearGradient>
			<path fill="url(#SVGID_18_)" d="M688.604,405.042l-3.428,61c32.2,19.241,44.824,31.314,47.482,34.014
				c-0.198-0.225-0.452-0.514-0.758-0.879C720.981,486.188,701.183,459.754,688.604,405.042z"/>
		</g>
		<g opacity="0.4">
			
				<linearGradient id="SVGID_19_" gradientUnits="userSpaceOnUse" x1="764.2178" y1="418.2202" x2="792.7715" y2="418.2202" gradientTransform="matrix(1 0 0 -1 0 865)">
				<stop  offset="0" style="stop-color:#BFD6DF"/>
				<stop  offset="1" style="stop-color:#BFD6DF;stop-opacity:0.7"/>
			</linearGradient>
			<path fill="url(#SVGID_19_)" d="M792.771,489.493c0,0-28.375-49.508-25.595-85.427l-2.959,42.13
				c6.309,7.778,13.924,18.547,19.435,27.338C789.306,482.55,792.771,489.493,792.771,489.493z"/>
		</g>
		<g opacity="0.4">
			
				<linearGradient id="SVGID_20_" gradientUnits="userSpaceOnUse" x1="758.2627" y1="335.1431" x2="784.0977" y2="335.1431" gradientTransform="matrix(1 0 0 -1 0 865)">
				<stop  offset="0" style="stop-color:#BFD6DF"/>
				<stop  offset="1" style="stop-color:#BFD6DF;stop-opacity:0.7"/>
			</linearGradient>
			<path fill="url(#SVGID_20_)" d="M761.842,477.35l-3.579,52.291c15.755,21.805,25.835,52.724,25.835,52.724
				C783.322,557.271,759.061,513.27,761.842,477.35z"/>
		</g>
	</g>
</g>
<g>
	<linearGradient id="SVGID_21_" gradientUnits="userSpaceOnUse" x1="122.1299" y1="120.5684" x2="420.4551" y2="120.5684">
		<stop  offset="0" style="stop-color:#90BCC6"/>
		<stop  offset="1" style="stop-color:#BFD6DF;stop-opacity:0.7"/>
	</linearGradient>
	<path fill="url(#SVGID_21_)" d="M227.896,87.666c67.495-33.92,192.559-14.663,192.559-14.663S258.98,86.621,122.13,173.578
		C122.13,173.578,176.3,115.803,227.896,87.666z"/>
</g>
</svg>
