<?xml version="1.0" encoding="utf-8"?>
<!-- Generator: Adobe Illustrator 15.1.0, SVG Export Plug-In . SVG Version: 6.00 Build 0)  -->
<!DOCTYPE svg PUBLIC "-//W3C//DTD SVG 1.1//EN" "http://www.w3.org/Graphics/SVG/1.1/DTD/svg11.dtd">
<svg version="1.1" id="Layer_1" xmlns="http://www.w3.org/2000/svg" xmlns:xlink="http://www.w3.org/1999/xlink" x="0px" y="0px"
	 width="864px" height="864px" viewBox="0 0 864 864" enable-background="new 0 0 864 864" xml:space="preserve">
<g>
	<g>
		<path d="M65.798,319.807c0,0,252.588-202.038,527.345-104.761c173.506,60.368,300.552,225.993,249.395,409.856
			c-39.242,138.429-176.866,196.026-176.866,196.026s58.771-171.087-93.41-208.671c-135.227-29.478-198.42,90.759-354.652,104.024
			c-156.232,13.265-206.344-45.69-206.344-45.69L65.798,319.807z"/>
	</g>
	<g>
		<path d="M30.235,321.736c0,0,212.27-186.406,474.004-150.661c284.519,46.857,345.237,248.441,345.237,248.441
			S931.725,122.129,516.93,28.271c-151.917-26.748-280.049-3.332-280.049-3.332l-6.212,33.636l-4.401,23.831
			C57.611,186.811,30.235,321.736,30.235,321.736z"/>
	</g>
	<g>
		<path fill="#FFFFFF" d="M114.198,587.392c-0.603,0-1.213-0.184-1.737-0.569l-9.32-6.817c-0.788-0.578-1.207-1.475-1.207-2.382
			c0-0.603,0.184-1.214,0.569-1.738c0.959-1.312,2.805-1.602,4.119-0.639l9.32,6.818c0.788,0.577,1.208,1.475,1.208,2.381
			c0,0.604-0.184,1.214-0.569,1.738C116.004,586.972,115.107,587.392,114.198,587.392z"/>
	</g>
	<g>
		<path fill="#FFFFFF" d="M84.485,358.606c30.553-19.87,62.412-36.658,91.846-50.368c65.74-30.623,119.392-45.902,119.392-45.902
			l-28.417,250.75c-115.566,17.849-208.396,0-208.396,0L84.485,358.606z"/>
	</g>
	<g>
		<path d="M247.086,734.706l-11.791,114.963c0,0-154.758,18.424-225.329-148.863C115.91,770.079,247.086,734.706,247.086,734.706z"
			/>
	</g>
	<g>
		<g>
			<path d="M279.938,760.625c41.551-19.768,83.101-39.535,124.651-59.307c6.431-3.057,0.799-12.577-5.597-9.533
				c-41.551,19.768-83.101,39.539-124.65,59.307C267.911,754.151,273.542,763.672,279.938,760.625L279.938,760.625z"/>
		</g>
	</g>
	<g>
		<g>
			<path d="M293.892,786.059c41.551-19.771,83.101-39.538,124.65-59.31c6.433-3.06,0.8-12.58-5.596-9.538
				c-41.551,19.771-83.101,39.543-124.65,59.311C281.864,779.581,287.496,789.103,293.892,786.059L293.892,786.059z"/>
		</g>
	</g>
	<g>
		<g>
			<path d="M281.364,822.918c41.55-19.771,83.1-39.539,124.648-59.31c6.432-3.06,0.8-12.581-5.596-9.538
				c-41.55,19.771-83.1,39.542-124.648,59.31C269.335,816.44,274.968,825.959,281.364,822.918L281.364,822.918z"/>
		</g>
	</g>
	<g>
		<path d="M448.272,655.116l-11.054,120.421c0,0,53.832-50.411,103.172-12.09l86.056-85.843
			C626.446,677.604,573.877,594.573,448.272,655.116z"/>
	</g>
	<g>
		<g>
			<path d="M631.114,706.152c3.865,7.177,6.144,17.997,7.453,27.092c3.801,26.383-1.684,53.554-10.611,78.331
				c-2.424,6.725,8.265,9.575,10.663,2.92c9.494-26.353,14.517-54.635,10.825-82.603c-1.392-10.546-3.687-21.852-8.792-31.336
				C637.272,694.28,627.739,699.879,631.114,706.152L631.114,706.152z"/>
		</g>
	</g>
	<g>
		<g>
			<path d="M608.311,732.386c3.678,20.419,1.417,39.817-5.453,59.333c-2.374,6.744,8.312,9.598,10.662,2.918
				c7.545-21.423,9.496-42.76,5.469-65.112C617.725,722.503,607.058,725.422,608.311,732.386L608.311,732.386z"/>
		</g>
	</g>
	<g>
		<g>
			<path d="M581.588,750.634c0.715,8.577-0.3,16.799-2.621,25.073c-1.932,6.881,8.738,9.773,10.663,2.919
				c2.559-9.114,3.803-18.455,3.016-27.912C592.058,743.656,580.997,743.538,581.588,750.634L581.588,750.634z"/>
		</g>
	</g>
	<g>
		<circle fill="#D1D3D4" cx="141.79" cy="600.281" r="19.708"/>
	</g>
	<g>
		<path fill="#414042" d="M226.268,82.406c70.758-34.263,194.51-14.811,194.51-14.811s-163.11,13.755-301.348,101.594
			C119.429,169.189,166.587,115.573,226.268,82.406z"/>
	</g>
	<g>
		<path fill="#FFFFFF" d="M789.415,628.434c24.79-66.996,26.382-173.67-62.285-265.969
			c-44.868-53.207-172.444-135.598-323.64-116.437l-18.302,229.139c170.971-60.286,243.191-44.903,333.099,21.422
			C784.612,549.648,789.415,628.434,789.415,628.434z"/>
	</g>
	<g opacity="0.49">
		<path fill="#D1D3D4" d="M295.723,262.336c-4.587,40.485-28.417,250.75-28.417,250.75c-21.976,3.366-40.5,5.293-60.238,6.51
			C207.068,519.596,258.895,425.75,295.723,262.336z"/>
	</g>
	<g>
		<line x1="225.568" y1="260.725" x2="193.009" y2="559.933"/>
		
			<rect x="198.971" y="259.842" transform="matrix(0.9941 0.1081 -0.1081 0.9941 45.6006 -20.2262)" width="20.635" height="300.974"/>
	</g>
	<g>
		<line x1="148.939" y1="295.329" x2="116.185" y2="543.705"/>
		
			<rect x="122.245" y="294.253" transform="matrix(0.9914 0.1307 -0.1307 0.9914 55.9802 -13.7294)" width="20.633" height="250.526"/>
	</g>
	<g>
		<path fill="#FFFFFF" d="M104.476,602.724H92.928c-1.627,0-2.948-1.32-2.948-2.948s1.32-2.948,2.948-2.948h11.548
			c1.628,0,2.948,1.32,2.948,2.948S106.104,602.724,104.476,602.724z"/>
	</g>
	<g opacity="0.6">
		<path fill="#FFFFFF" d="M141.79,619.99c3.973,0,7.664-1.185,10.759-3.207c-0.829,0.105-1.681,0.182-2.583,0.182
			c-22.269,0-22.603-33.965-1.036-35.035c-2.216-0.863-4.619-1.355-7.14-1.355c-10.885,0-19.708,8.823-19.708,19.707
			C122.082,611.166,130.905,619.99,141.79,619.99z"/>
	</g>
	<g opacity="0.49">
		<path fill="#D1D3D4" d="M476.235,447.863c0,0-69.583,10.129-82.284-85.966l-9.04,113.178
			C452.712,452.28,476.235,447.863,476.235,447.863z"/>
	</g>
	<g opacity="0.49">
		<path fill="#D1D3D4" d="M484.216,331.881c0,0-72.77-1.914-80.726-85.854l-7.625,95.452
			C450.994,332.053,484.216,331.881,484.216,331.881z"/>
	</g>
	<g opacity="0.49">
		<path fill="#D1D3D4" d="M584.809,345.792c0,0-67.922-15.671-75.879-99.611l-8.7,96.676
			C553.396,344.502,584.809,345.792,584.809,345.792z"/>
	</g>
	<g opacity="0.49">
		<path fill="#D1D3D4" d="M585.115,438.689c0,0-75.229-7.485-83.186-91.424l-8.701,97.646
			C543.109,433.611,585.115,438.689,585.115,438.689z"/>
	</g>
	<g opacity="0.49">
		<path fill="#D1D3D4" d="M653.987,457.377c-16.291-9.242-45.287-33.855-50.944-93.53l-6.754,76.288
			C627.366,444.052,660.611,461.134,653.987,457.377z"/>
	</g>
	<g opacity="0.49">
		<path fill="#D1D3D4" d="M667.619,376.145c0,0-52.321-19.722-60.278-103.662l-8.151,92.081
			C656.721,380.796,667.619,376.145,667.619,376.145z"/>
	</g>
	<g opacity="0.49">
		<path fill="#D1D3D4" d="M744.788,432.138c0,0-45.2-30.522-54.364-108.217l-6.55,84.635
			C741.403,424.788,744.788,432.138,744.788,432.138z"/>
	</g>
	<g opacity="0.49">
		<path fill="#D1D3D4" d="M728.34,505.242c-11.029-13.122-30.306-42.469-43.013-97.736c0,0-49.437,37.104-4.938,63.784
			C724.215,497.479,733.525,511.411,728.34,505.242z"/>
	</g>
	<g opacity="0.49">
		<path fill="#D1D3D4" d="M789.679,495.574c0,0-29.658-54.857-26.85-91.141l-4.537,58.619
			C780.454,502.354,789.679,495.574,789.679,495.574z"/>
	</g>
	<g opacity="0.49">
		<path fill="#D1D3D4" d="M781.064,589.273c-0.782-25.347-24.672-72.765-21.864-109.049l-3.297,57.234
			C771.931,559.812,781.064,589.273,781.064,589.273z"/>
	</g>
	<g>
		<path d="M792.21,681.963l-18.472-9.195c23.474-47.173,25.821-98.192,6.787-147.545c-24.047-62.353-80.494-116.04-150.995-143.614
			c-73.562-28.219-137.153-31.04-177.541-28.423c-43.847,2.834-70.615,12.497-70.88,12.593l-7.148-19.356
			c1.172-0.433,29.204-10.645,75.76-13.768c42.637-2.857,109.74-0.022,187.263,29.711c75.864,29.674,136.7,87.77,162.795,155.433
			C820.952,572.697,818.335,629.467,792.21,681.963z"/>
	</g>
	<g>
		<line x1="598.575" y1="250.854" x2="590.108" y2="461.339"/>
		
			<rect x="584.025" y="250.769" transform="matrix(0.9992 0.0402 -0.0402 0.9992 14.7892 -23.5951)" width="20.633" height="210.656"/>
	</g>
	<g>
		<line x1="499.309" y1="238.904" x2="484.962" y2="466.593"/>
		<rect x="481.818" y="238.678" transform="matrix(0.998 0.0628 -0.0628 0.998 23.1431 -30.2332)" width="20.635" height="228.14"/>
	</g>
	<g>
		<line x1="754.664" y1="376.061" x2="740.184" y2="633.434"/>
		
			<rect x="737.106" y="375.857" transform="matrix(0.9984 0.0562 -0.0562 0.9984 29.533 -41.1877)" width="20.636" height="257.782"/>
	</g>
	<g>
		<line x1="681.966" y1="305.672" x2="667.619" y2="533.361"/>
		<rect x="664.475" y="305.447" transform="matrix(0.998 0.0629 -0.0629 0.998 27.7455 -41.6441)" width="20.634" height="228.14"/>
	</g>
	<g>
		<path fill="#FFFFFF" d="M104.885,624.872c-0.908,0-1.805-0.417-2.382-1.206c-0.385-0.524-0.569-1.134-0.569-1.738
			c0-0.907,0.419-1.805,1.207-2.381l9.32-6.819c1.313-0.962,3.158-0.676,4.12,0.639c0.385,0.524,0.569,1.135,0.569,1.737
			c0,0.909-0.419,1.806-1.208,2.383l-9.32,6.819C106.098,624.688,105.488,624.872,104.885,624.872z"/>
	</g>
	<g opacity="0.49">
		<path fill="#D1D3D4" d="M211.765,292.629c-4.587,40.484-24.846,227.955-24.846,227.955c-27.926,0.876-38.382,0.508-57.262-0.289
			C129.656,520.295,175.673,481.1,211.765,292.629z"/>
	</g>
	<g opacity="0.49">
		<path fill="#D1D3D4" d="M133.982,329.411c-4.587,40.484-24.846,189.678-24.846,189.678c-30.691-2.88-31.984-3.24-50.227-6.003
			C58.91,513.086,97.891,517.88,133.982,329.411z"/>
	</g>
</g>
</svg>
